<svg xmlns="http://www.w3.org/2000/svg" version="1.1" xmlns:xlink="http://www.w3.org/1999/xlink" xmlns:svgjs="http://svgjs.com/svgjs" width="500" height="1400" preserveAspectRatio="none" viewBox="0 0 500 1400"><g mask="url(&quot;#SvgjsMask1174&quot;)" fill="none"><rect width="500" height="1400" x="0" y="0" fill="#0e2a47"></rect><path d="M-42.27 850.76L-42.27 850.76" stroke="#132e65" stroke-width="1.5"></path><path d="M-42.27 850.76L-74.36 941.01" stroke="#132e65" stroke-width="1.5"></path><path d="M-42.27 850.76L45.47 950.38" stroke="#132e65" stroke-width="1.5"></path><path d="M-42.27 850.76L195.76 858.43" stroke="#132e65" stroke-width="1.5"></path><path d="M-42.27 850.76L100.98 1112.4" stroke="#132e65" stroke-width="1.5"></path><path d="M-74.36 941.01L-74.36 941.01" stroke="#132e65" stroke-width="1.5"></path><path d="M-74.36 941.01L45.47 950.38" stroke="#132e65" stroke-width="1.5"></path><path d="M-74.36 941.01L-102.95 1143.31" stroke="#132e65" stroke-width="1.5"></path><path d="M-102.95 1143.31L-102.95 1143.31" stroke="#132e65" stroke-width="1.5"></path><path d="M-102.95 1143.31L100.98 1112.4" stroke="#132e65" stroke-width="1.5"></path><path d="M-102.95 1143.31L75.32 1301.26" stroke="#132e65" stroke-width="1.5"></path><path d="M-102.95 1143.31L45.47 950.38" stroke="#132e65" stroke-width="1.5"></path><path d="M-102.95 1143.31L-42.27 850.76" stroke="#132e65" stroke-width="1.5"></path><path d="M-102.95 1143.31L69.05 1423.16" stroke="#132e65" stroke-width="1.5"></path><path d="M-103.4 1594.65L-103.4 1594.65" stroke="#132e65" stroke-width="1.5"></path><path d="M-103.4 1594.65L73.37 1574.15" stroke="#132e65" stroke-width="1.5"></path><path d="M-103.4 1594.65L69.05 1423.16" stroke="#132e65" stroke-width="1.5"></path><path d="M-103.4 1594.65L225.7 1579.5" stroke="#132e65" stroke-width="1.5"></path><path d="M-103.4 1594.65L75.32 1301.26" stroke="#132e65" stroke-width="1.5"></path><path d="M45.47 950.38L45.47 950.38" stroke="#132e65" stroke-width="1.5"></path><path d="M45.47 950.38L100.98 1112.4" stroke="#132e65" stroke-width="1.5"></path><path d="M45.47 950.38L195.76 858.43" stroke="#132e65" stroke-width="1.5"></path><path d="M45.47 950.38L245.27 961.44" stroke="#132e65" stroke-width="1.5"></path><path d="M100.98 1112.4L100.98 1112.4" stroke="#132e65" stroke-width="1.5"></path><path d="M100.98 1112.4L231.74 1126.85" stroke="#132e65" stroke-width="1.5"></path><path d="M100.98 1112.4L75.32 1301.26" stroke="#132e65" stroke-width="1.5"></path><path d="M100.98 1112.4L245.27 961.44" stroke="#132e65" stroke-width="1.5"></path><path d="M75.32 1301.26L75.32 1301.26" stroke="#132e65" stroke-width="1.5"></path><path d="M75.32 1301.26L69.05 1423.16" stroke="#132e65" stroke-width="1.5"></path><path d="M75.32 1301.26L225.66 1289.11" stroke="#132e65" stroke-width="1.5"></path><path d="M69.05 1423.16L69.05 1423.16" stroke="#132e65" stroke-width="1.5"></path><path d="M69.05 1423.16L73.37 1574.15" stroke="#132e65" stroke-width="1.5"></path><path d="M69.05 1423.16L239.42 1455.48" stroke="#132e65" stroke-width="1.5"></path><path d="M69.05 1423.16L225.66 1289.11" stroke="#132e65" stroke-width="1.5"></path><path d="M69.05 1423.16L225.7 1579.5" stroke="#132e65" stroke-width="1.5"></path><path d="M73.37 1574.15L73.37 1574.15" stroke="#132e65" stroke-width="1.5"></path><path d="M73.37 1574.15L225.7 1579.5" stroke="#132e65" stroke-width="1.5"></path><path d="M206.73 682.16L206.73 682.16" stroke="#132e65" stroke-width="1.5"></path><path d="M206.73 682.16L195.76 858.43" stroke="#132e65" stroke-width="1.5"></path><path d="M206.73 682.16L394.89 668.75" stroke="#132e65" stroke-width="1.5"></path><path d="M206.73 682.16L380.08 513.21" stroke="#132e65" stroke-width="1.5"></path><path d="M206.73 682.16L407.32 848.11" stroke="#132e65" stroke-width="1.5"></path><path d="M206.73 682.16L245.27 961.44" stroke="#132e65" stroke-width="1.5"></path><path d="M206.73 682.16L495.41 684.55" stroke="#132e65" stroke-width="1.5"></path><path d="M195.76 858.43L195.76 858.43" stroke="#132e65" stroke-width="1.5"></path><path d="M195.76 858.43L245.27 961.44" stroke="#132e65" stroke-width="1.5"></path><path d="M245.27 961.44L245.27 961.44" stroke="#132e65" stroke-width="1.5"></path><path d="M245.27 961.44L231.74 1126.85" stroke="#132e65" stroke-width="1.5"></path><path d="M245.27 961.44L352.14 1103.94" stroke="#132e65" stroke-width="1.5"></path><path d="M245.27 961.44L407.32 848.11" stroke="#132e65" stroke-width="1.5"></path><path d="M231.74 1126.85L231.74 1126.85" stroke="#132e65" stroke-width="1.5"></path><path d="M231.74 1126.85L352.14 1103.94" stroke="#132e65" stroke-width="1.5"></path><path d="M231.74 1126.85L225.66 1289.11" stroke="#132e65" stroke-width="1.5"></path><path d="M225.66 1289.11L225.66 1289.11" stroke="#132e65" stroke-width="1.5"></path><path d="M225.66 1289.11L377.69 1256.41" stroke="#132e65" stroke-width="1.5"></path><path d="M239.42 1455.48L239.42 1455.48" stroke="#132e65" stroke-width="1.5"></path><path d="M239.42 1455.48L345.06 1439.7" stroke="#132e65" stroke-width="1.5"></path><path d="M239.42 1455.48L225.7 1579.5" stroke="#132e65" stroke-width="1.5"></path><path d="M239.42 1455.48L225.66 1289.11" stroke="#132e65" stroke-width="1.5"></path><path d="M225.7 1579.5L225.7 1579.5" stroke="#132e65" stroke-width="1.5"></path><path d="M225.7 1579.5L345.06 1439.7" stroke="#132e65" stroke-width="1.5"></path><path d="M225.7 1579.5L410.71 1580.92" stroke="#132e65" stroke-width="1.5"></path><path d="M225.7 1579.5L490.46 1557.81" stroke="#132e65" stroke-width="1.5"></path><path d="M367.66 -57.27L367.66 -57.27" stroke="#132e65" stroke-width="1.5"></path><path d="M367.66 -57.27L407.08 42.13" stroke="#132e65" stroke-width="1.5"></path><path d="M367.66 -57.27L529.18 77.37" stroke="#132e65" stroke-width="1.5"></path><path d="M367.66 -57.27L338.26 197.79" stroke="#132e65" stroke-width="1.5"></path><path d="M367.66 -57.27L510.08 192.59" stroke="#132e65" stroke-width="1.5"></path><path d="M367.66 -57.27L650.67 51.28" stroke="#132e65" stroke-width="1.5"></path><path d="M407.08 42.13L407.08 42.13" stroke="#132e65" stroke-width="1.5"></path><path d="M407.08 42.13L529.18 77.37" stroke="#132e65" stroke-width="1.5"></path><path d="M407.08 42.13L338.26 197.79" stroke="#132e65" stroke-width="1.5"></path><path d="M407.08 42.13L510.08 192.59" stroke="#132e65" stroke-width="1.5"></path><path d="M407.08 42.13L650.67 51.28" stroke="#132e65" stroke-width="1.5"></path><path d="M338.26 197.79L338.26 197.79" stroke="#132e65" stroke-width="1.5"></path><path d="M338.26 197.79L365.36 355.95" stroke="#132e65" stroke-width="1.5"></path><path d="M338.26 197.79L510.08 192.59" stroke="#132e65" stroke-width="1.5"></path><path d="M338.26 197.79L490.36 341.82" stroke="#132e65" stroke-width="1.5"></path><path d="M365.36 355.95L365.36 355.95" stroke="#132e65" stroke-width="1.5"></path><path d="M365.36 355.95L490.36 341.82" stroke="#132e65" stroke-width="1.5"></path><path d="M365.36 355.95L380.08 513.21" stroke="#132e65" stroke-width="1.5"></path><path d="M365.36 355.95L488.97 501.54" stroke="#132e65" stroke-width="1.5"></path><path d="M365.36 355.95L510.08 192.59" stroke="#132e65" stroke-width="1.5"></path><path d="M365.36 355.95L394.89 668.75" stroke="#132e65" stroke-width="1.5"></path><path d="M380.08 513.21L380.08 513.21" stroke="#132e65" stroke-width="1.5"></path><path d="M380.08 513.21L488.97 501.54" stroke="#132e65" stroke-width="1.5"></path><path d="M380.08 513.21L394.89 668.75" stroke="#132e65" stroke-width="1.5"></path><path d="M380.08 513.21L490.36 341.82" stroke="#132e65" stroke-width="1.5"></path><path d="M380.08 513.21L495.41 684.55" stroke="#132e65" stroke-width="1.5"></path><path d="M394.89 668.75L394.89 668.75" stroke="#132e65" stroke-width="1.5"></path><path d="M394.89 668.75L495.41 684.55" stroke="#132e65" stroke-width="1.5"></path><path d="M394.89 668.75L407.32 848.11" stroke="#132e65" stroke-width="1.5"></path><path d="M394.89 668.75L488.97 501.54" stroke="#132e65" stroke-width="1.5"></path><path d="M394.89 668.75L548.18 846.53" stroke="#132e65" stroke-width="1.5"></path><path d="M407.32 848.11L407.32 848.11" stroke="#132e65" stroke-width="1.5"></path><path d="M407.32 848.11L548.18 846.53" stroke="#132e65" stroke-width="1.5"></path><path d="M352.14 1103.94L352.14 1103.94" stroke="#132e65" stroke-width="1.5"></path><path d="M352.14 1103.94L491.88 1122.34" stroke="#132e65" stroke-width="1.5"></path><path d="M352.14 1103.94L377.69 1256.41" stroke="#132e65" stroke-width="1.5"></path><path d="M377.69 1256.41L377.69 1256.41" stroke="#132e65" stroke-width="1.5"></path><path d="M345.06 1439.7L345.06 1439.7" stroke="#132e65" stroke-width="1.5"></path><path d="M345.06 1439.7L410.71 1580.92" stroke="#132e65" stroke-width="1.5"></path><path d="M345.06 1439.7L377.69 1256.41" stroke="#132e65" stroke-width="1.5"></path><path d="M410.71 1580.92L410.71 1580.92" stroke="#132e65" stroke-width="1.5"></path><path d="M410.71 1580.92L490.46 1557.81" stroke="#132e65" stroke-width="1.5"></path><path d="M529.18 77.37L529.18 77.37" stroke="#132e65" stroke-width="1.5"></path><path d="M529.18 77.37L510.08 192.59" stroke="#132e65" stroke-width="1.5"></path><path d="M529.18 77.37L650.67 51.28" stroke="#132e65" stroke-width="1.5"></path><path d="M510.08 192.59L510.08 192.59" stroke="#132e65" stroke-width="1.5"></path><path d="M510.08 192.59L653.91 188.09" stroke="#132e65" stroke-width="1.5"></path><path d="M510.08 192.59L490.36 341.82" stroke="#132e65" stroke-width="1.5"></path><path d="M490.36 341.82L490.36 341.82" stroke="#132e65" stroke-width="1.5"></path><path d="M490.36 341.82L488.97 501.54" stroke="#132e65" stroke-width="1.5"></path><path d="M490.36 341.82L699.45 345.7" stroke="#132e65" stroke-width="1.5"></path><path d="M488.97 501.54L488.97 501.54" stroke="#132e65" stroke-width="1.5"></path><path d="M488.97 501.54L638.09 555.47" stroke="#132e65" stroke-width="1.5"></path><path d="M488.97 501.54L495.41 684.55" stroke="#132e65" stroke-width="1.5"></path><path d="M495.41 684.55L495.41 684.55" stroke="#132e65" stroke-width="1.5"></path><path d="M495.41 684.55L664.12 697.11" stroke="#132e65" stroke-width="1.5"></path><path d="M495.41 684.55L548.18 846.53" stroke="#132e65" stroke-width="1.5"></path><path d="M548.18 846.53L548.18 846.53" stroke="#132e65" stroke-width="1.5"></path><path d="M548.18 846.53L687.01 790.18" stroke="#132e65" stroke-width="1.5"></path><path d="M548.18 846.53L513.67 1000.15" stroke="#132e65" stroke-width="1.5"></path><path d="M513.67 1000.15L513.67 1000.15" stroke="#132e65" stroke-width="1.5"></path><path d="M513.67 1000.15L491.88 1122.34" stroke="#132e65" stroke-width="1.5"></path><path d="M513.67 1000.15L646.21 1002.53" stroke="#132e65" stroke-width="1.5"></path><path d="M491.88 1122.34L491.88 1122.34" stroke="#132e65" stroke-width="1.5"></path><path d="M491.88 1122.34L654.35 1123.26" stroke="#132e65" stroke-width="1.5"></path><path d="M491.88 1122.34L377.69 1256.41" stroke="#132e65" stroke-width="1.5"></path><path d="M491.88 1122.34L547.68 1300.28" stroke="#132e65" stroke-width="1.5"></path><path d="M491.88 1122.34L646.21 1002.53" stroke="#132e65" stroke-width="1.5"></path><path d="M547.68 1300.28L547.68 1300.28" stroke="#132e65" stroke-width="1.5"></path><path d="M547.68 1300.28L559.47 1403.48" stroke="#132e65" stroke-width="1.5"></path><path d="M559.47 1403.48L559.47 1403.48" stroke="#132e65" stroke-width="1.5"></path><path d="M559.47 1403.48L673.53 1414.39" stroke="#132e65" stroke-width="1.5"></path><path d="M559.47 1403.48L490.46 1557.81" stroke="#132e65" stroke-width="1.5"></path><path d="M559.47 1403.48L664.31 1550.58" stroke="#132e65" stroke-width="1.5"></path><path d="M559.47 1403.48L345.06 1439.7" stroke="#132e65" stroke-width="1.5"></path><path d="M559.47 1403.48L410.71 1580.92" stroke="#132e65" stroke-width="1.5"></path><path d="M490.46 1557.81L490.46 1557.81" stroke="#132e65" stroke-width="1.5"></path><path d="M490.46 1557.81L664.31 1550.58" stroke="#132e65" stroke-width="1.5"></path><path d="M490.46 1557.81L345.06 1439.7" stroke="#132e65" stroke-width="1.5"></path><path d="M490.46 1557.81L673.53 1414.39" stroke="#132e65" stroke-width="1.5"></path><path d="M688.95 -62.36L688.95 -62.36" stroke="#132e65" stroke-width="1.5"></path><path d="M688.95 -62.36L650.67 51.28" stroke="#132e65" stroke-width="1.5"></path><path d="M688.95 -62.36L529.18 77.37" stroke="#132e65" stroke-width="1.5"></path><path d="M688.95 -62.36L653.91 188.09" stroke="#132e65" stroke-width="1.5"></path><path d="M688.95 -62.36L407.08 42.13" stroke="#132e65" stroke-width="1.5"></path><path d="M688.95 -62.36L510.08 192.59" stroke="#132e65" stroke-width="1.5"></path><path d="M650.67 51.28L650.67 51.28" stroke="#132e65" stroke-width="1.5"></path><path d="M650.67 51.28L653.91 188.09" stroke="#132e65" stroke-width="1.5"></path><path d="M650.67 51.28L510.08 192.59" stroke="#132e65" stroke-width="1.5"></path><path d="M653.91 188.09L653.91 188.09" stroke="#132e65" stroke-width="1.5"></path><path d="M653.91 188.09L699.45 345.7" stroke="#132e65" stroke-width="1.5"></path><path d="M653.91 188.09L529.18 77.37" stroke="#132e65" stroke-width="1.5"></path><path d="M653.91 188.09L490.36 341.82" stroke="#132e65" stroke-width="1.5"></path><path d="M699.45 345.7L699.45 345.7" stroke="#132e65" stroke-width="1.5"></path><path d="M699.45 345.7L638.09 555.47" stroke="#132e65" stroke-width="1.5"></path><path d="M699.45 345.7L510.08 192.59" stroke="#132e65" stroke-width="1.5"></path><path d="M638.09 555.47L638.09 555.47" stroke="#132e65" stroke-width="1.5"></path><path d="M638.09 555.47L664.12 697.11" stroke="#132e65" stroke-width="1.5"></path><path d="M638.09 555.47L495.41 684.55" stroke="#132e65" stroke-width="1.5"></path><path d="M664.12 697.11L664.12 697.11" stroke="#132e65" stroke-width="1.5"></path><path d="M664.12 697.11L687.01 790.18" stroke="#132e65" stroke-width="1.5"></path><path d="M687.01 790.18L687.01 790.18" stroke="#132e65" stroke-width="1.5"></path><path d="M687.01 790.18L646.21 1002.53" stroke="#132e65" stroke-width="1.5"></path><path d="M687.01 790.18L495.41 684.55" stroke="#132e65" stroke-width="1.5"></path><path d="M646.21 1002.53L646.21 1002.53" stroke="#132e65" stroke-width="1.5"></path><path d="M646.21 1002.53L654.35 1123.26" stroke="#132e65" stroke-width="1.5"></path><path d="M646.21 1002.53L548.18 846.53" stroke="#132e65" stroke-width="1.5"></path><path d="M654.35 1123.26L654.35 1123.26" stroke="#132e65" stroke-width="1.5"></path><path d="M654.35 1123.26L513.67 1000.15" stroke="#132e65" stroke-width="1.5"></path><path d="M654.35 1123.26L547.68 1300.28" stroke="#132e65" stroke-width="1.5"></path><path d="M654.35 1123.26L673.53 1414.39" stroke="#132e65" stroke-width="1.5"></path><path d="M654.35 1123.26L559.47 1403.48" stroke="#132e65" stroke-width="1.5"></path><path d="M673.53 1414.39L673.53 1414.39" stroke="#132e65" stroke-width="1.5"></path><path d="M673.53 1414.39L664.31 1550.58" stroke="#132e65" stroke-width="1.5"></path><path d="M673.53 1414.39L547.68 1300.28" stroke="#132e65" stroke-width="1.5"></path><path d="M664.31 1550.58L664.31 1550.58" stroke="#132e65" stroke-width="1.5"></path><circle r="5" cx="-42.27" cy="850.76" fill="#132e65"></circle><circle r="5" cx="-74.36" cy="941.01" fill="#132e65"></circle><circle r="5" cx="-102.95" cy="1143.31" fill="#132e65"></circle><circle r="5" cx="-103.4" cy="1594.65" fill="#132e65"></circle><circle r="5" cx="45.47" cy="950.38" fill="#132e65"></circle><circle r="5" cx="100.98" cy="1112.4" fill="#132e65"></circle><circle r="5" cx="75.32" cy="1301.26" fill="#132e65"></circle><circle r="5" cx="69.05" cy="1423.16" fill="#132e65"></circle><circle r="5" cx="73.37" cy="1574.15" fill="#132e65"></circle><circle r="5" cx="206.73" cy="682.16" fill="#132e65"></circle><circle r="5" cx="195.76" cy="858.43" fill="#132e65"></circle><circle r="5" cx="245.27" cy="961.44" fill="#132e65"></circle><circle r="5" cx="231.74" cy="1126.85" fill="#132e65"></circle><circle r="5" cx="225.66" cy="1289.11" fill="#132e65"></circle><circle r="5" cx="239.42" cy="1455.48" fill="#132e65"></circle><circle r="5" cx="225.7" cy="1579.5" fill="#132e65"></circle><circle r="5" cx="367.66" cy="-57.27" fill="#132e65"></circle><circle r="5" cx="407.08" cy="42.13" fill="#132e65"></circle><circle r="5" cx="338.26" cy="197.79" fill="#132e65"></circle><circle r="5" cx="365.36" cy="355.95" fill="#132e65"></circle><circle r="5" cx="380.08" cy="513.21" fill="#132e65"></circle><circle r="5" cx="394.89" cy="668.75" fill="#132e65"></circle><circle r="5" cx="407.32" cy="848.11" fill="#132e65"></circle><circle r="5" cx="352.14" cy="1103.94" fill="#132e65"></circle><circle r="5" cx="377.69" cy="1256.41" fill="#132e65"></circle><circle r="5" cx="345.06" cy="1439.7" fill="#132e65"></circle><circle r="5" cx="410.71" cy="1580.92" fill="#132e65"></circle><circle r="5" cx="529.18" cy="77.37" fill="#132e65"></circle><circle r="5" cx="510.08" cy="192.59" fill="#132e65"></circle><circle r="5" cx="490.36" cy="341.82" fill="#132e65"></circle><circle r="5" cx="488.97" cy="501.54" fill="#132e65"></circle><circle r="5" cx="495.41" cy="684.55" fill="#132e65"></circle><circle r="5" cx="548.18" cy="846.53" fill="#132e65"></circle><circle r="5" cx="513.67" cy="1000.15" fill="#132e65"></circle><circle r="5" cx="491.88" cy="1122.34" fill="#132e65"></circle><circle r="5" cx="547.68" cy="1300.28" fill="#132e65"></circle><circle r="5" cx="559.47" cy="1403.48" fill="#132e65"></circle><circle r="5" cx="490.46" cy="1557.81" fill="#132e65"></circle><circle r="5" cx="688.95" cy="-62.36" fill="#132e65"></circle><circle r="5" cx="650.67" cy="51.28" fill="#132e65"></circle><circle r="5" cx="653.91" cy="188.09" fill="#132e65"></circle><circle r="5" cx="699.45" cy="345.7" fill="#132e65"></circle><circle r="5" cx="638.09" cy="555.47" fill="#132e65"></circle><circle r="5" cx="664.12" cy="697.11" fill="#132e65"></circle><circle r="5" cx="687.01" cy="790.18" fill="#132e65"></circle><circle r="5" cx="646.21" cy="1002.53" fill="#132e65"></circle><circle r="5" cx="654.35" cy="1123.26" fill="#132e65"></circle><circle r="5" cx="673.53" cy="1414.39" fill="#132e65"></circle><circle r="5" cx="664.31" cy="1550.58" fill="#132e65"></circle><path d="M-104.66 1458.08L-104.66 1458.08" stroke="hsl(228.5, 77.2%, 51.5%)" stroke-width="1.5"></path><path d="M-104.66 1458.08L-70.86 1603.82" stroke="hsl(228.5, 77.2%, 51.5%)" stroke-width="1.5"></path><path d="M-104.66 1458.08L52.13 1539.6" stroke="hsl(228.5, 77.2%, 51.5%)" stroke-width="1.5"></path><path d="M-104.66 1458.08L93.36 1421.18" stroke="hsl(228.5, 77.2%, 51.5%)" stroke-width="1.5"></path><path d="M-70.86 1603.82L-70.86 1603.82" stroke="hsl(228.5, 77.2%, 51.5%)" stroke-width="1.5"></path><path d="M-70.86 1603.82L52.13 1539.6" stroke="hsl(228.5, 77.2%, 51.5%)" stroke-width="1.5"></path><path d="M-70.86 1603.82L93.36 1421.18" stroke="hsl(228.5, 77.2%, 51.5%)" stroke-width="1.5"></path><path d="M62.5 1116.28L62.5 1116.28" stroke="hsl(228.5, 77.2%, 51.5%)" stroke-width="1.5"></path><path d="M62.5 1116.28L228.47 1118.53" stroke="hsl(228.5, 77.2%, 51.5%)" stroke-width="1.5"></path><path d="M93.36 1421.18L93.36 1421.18" stroke="hsl(228.5, 77.2%, 51.5%)" stroke-width="1.5"></path><path d="M93.36 1421.18L189.4 1409.43" stroke="hsl(228.5, 77.2%, 51.5%)" stroke-width="1.5"></path><path d="M93.36 1421.18L52.13 1539.6" stroke="hsl(228.5, 77.2%, 51.5%)" stroke-width="1.5"></path><path d="M93.36 1421.18L111.86 1278.61" stroke="hsl(228.5, 77.2%, 51.5%)" stroke-width="1.5"></path><path d="M380.59 1090.68L380.59 1090.68" stroke="hsl(228.5, 77.2%, 51.5%)" stroke-width="1.5"></path><path d="M380.59 1090.68L340.23 944.76" stroke="hsl(228.5, 77.2%, 51.5%)" stroke-width="1.5"></path><path d="M380.59 1090.68L228.47 1118.53" stroke="hsl(228.5, 77.2%, 51.5%)" stroke-width="1.5"></path><path d="M380.59 1090.68L359.01 1261.58" stroke="hsl(228.5, 77.2%, 51.5%)" stroke-width="1.5"></path><path d="M380.59 1090.68L551.32 1125.48" stroke="hsl(228.5, 77.2%, 51.5%)" stroke-width="1.5"></path><path d="M502.87 -63.36L502.87 -63.36" stroke="hsl(228.5, 77.2%, 51.5%)" stroke-width="1.5"></path><path d="M502.87 -63.36L498.7 60.14" stroke="hsl(228.5, 77.2%, 51.5%)" stroke-width="1.5"></path><path d="M502.87 -63.36L691.88 -88.51" stroke="hsl(228.5, 77.2%, 51.5%)" stroke-width="1.5"></path><path d="M502.87 -63.36L702.39 100.67" stroke="hsl(228.5, 77.2%, 51.5%)" stroke-width="1.5"></path><path d="M502.87 -63.36L506.93 256.68" stroke="hsl(228.5, 77.2%, 51.5%)" stroke-width="1.5"></path><path d="M502.87 -63.36L492.81 345.09" stroke="hsl(228.5, 77.2%, 51.5%)" stroke-width="1.5"></path><path d="M498.7 60.14L498.7 60.14" stroke="hsl(228.5, 77.2%, 51.5%)" stroke-width="1.5"></path><path d="M498.7 60.14L506.93 256.68" stroke="hsl(228.5, 77.2%, 51.5%)" stroke-width="1.5"></path><path d="M498.7 60.14L702.39 100.67" stroke="hsl(228.5, 77.2%, 51.5%)" stroke-width="1.5"></path><path d="M498.7 60.14L691.88 -88.51" stroke="hsl(228.5, 77.2%, 51.5%)" stroke-width="1.5"></path><path d="M498.7 60.14L492.81 345.09" stroke="hsl(228.5, 77.2%, 51.5%)" stroke-width="1.5"></path><path d="M498.7 60.14L650.47 406.67" stroke="hsl(228.5, 77.2%, 51.5%)" stroke-width="1.5"></path><path d="M552.5 1249.98L552.5 1249.98" stroke="hsl(228.5, 77.2%, 51.5%)" stroke-width="1.5"></path><path d="M552.5 1249.98L551.32 1125.48" stroke="hsl(228.5, 77.2%, 51.5%)" stroke-width="1.5"></path><path d="M552.5 1249.98L703.45 1270.41" stroke="hsl(228.5, 77.2%, 51.5%)" stroke-width="1.5"></path><path d="M691.88 -88.51L691.88 -88.51" stroke="hsl(228.5, 77.2%, 51.5%)" stroke-width="1.5"></path><path d="M691.88 -88.51L702.39 100.67" stroke="hsl(228.5, 77.2%, 51.5%)" stroke-width="1.5"></path><path d="M691.88 -88.51L506.93 256.68" stroke="hsl(228.5, 77.2%, 51.5%)" stroke-width="1.5"></path><path d="M650.47 406.67L650.47 406.67" stroke="hsl(228.5, 77.2%, 51.5%)" stroke-width="1.5"></path><path d="M650.47 406.67L647.42 536.65" stroke="hsl(228.5, 77.2%, 51.5%)" stroke-width="1.5"></path><path d="M650.47 406.67L492.81 345.09" stroke="hsl(228.5, 77.2%, 51.5%)" stroke-width="1.5"></path><path d="M650.47 406.67L506.73 550.14" stroke="hsl(228.5, 77.2%, 51.5%)" stroke-width="1.5"></path><path d="M650.47 406.67L506.93 256.68" stroke="hsl(228.5, 77.2%, 51.5%)" stroke-width="1.5"></path><path d="M650.47 406.67L551.93 650.99" stroke="hsl(228.5, 77.2%, 51.5%)" stroke-width="1.5"></path><path d="M650.47 406.67L382.42 495.74" stroke="hsl(228.5, 77.2%, 51.5%)" stroke-width="1.5"></path><path d="M704.76 711.99L704.76 711.99" stroke="hsl(228.5, 77.2%, 51.5%)" stroke-width="1.5"></path><path d="M704.76 711.99L551.93 650.99" stroke="hsl(228.5, 77.2%, 51.5%)" stroke-width="1.5"></path><path d="M704.76 711.99L647.42 536.65" stroke="hsl(228.5, 77.2%, 51.5%)" stroke-width="1.5"></path><path d="M704.76 711.99L696.1 944.6" stroke="hsl(228.5, 77.2%, 51.5%)" stroke-width="1.5"></path><path d="M-66.36 1253.16L-66.36 1253.16" stroke="hsl(228.5, 77.2%, 51.5%)" stroke-width="1.5"></path><path d="M-66.36 1253.16L111.86 1278.61" stroke="hsl(228.5, 77.2%, 51.5%)" stroke-width="1.5"></path><path d="M-66.36 1253.16L62.5 1116.28" stroke="hsl(228.5, 77.2%, 51.5%)" stroke-width="1.5"></path><path d="M111.86 1278.61L111.86 1278.61" stroke="hsl(228.5, 77.2%, 51.5%)" stroke-width="1.5"></path><path d="M111.86 1278.61L243.3 1257.49" stroke="hsl(228.5, 77.2%, 51.5%)" stroke-width="1.5"></path><path d="M111.86 1278.61L189.4 1409.43" stroke="hsl(228.5, 77.2%, 51.5%)" stroke-width="1.5"></path><path d="M52.13 1539.6L52.13 1539.6" stroke="hsl(228.5, 77.2%, 51.5%)" stroke-width="1.5"></path><path d="M211.27 990.71L211.27 990.71" stroke="hsl(228.5, 77.2%, 51.5%)" stroke-width="1.5"></path><path d="M211.27 990.71L228.47 1118.53" stroke="hsl(228.5, 77.2%, 51.5%)" stroke-width="1.5"></path><path d="M211.27 990.71L340.23 944.76" stroke="hsl(228.5, 77.2%, 51.5%)" stroke-width="1.5"></path><path d="M228.47 1118.53L228.47 1118.53" stroke="hsl(228.5, 77.2%, 51.5%)" stroke-width="1.5"></path><path d="M228.47 1118.53L243.3 1257.49" stroke="hsl(228.5, 77.2%, 51.5%)" stroke-width="1.5"></path><path d="M228.47 1118.53L359.01 1261.58" stroke="hsl(228.5, 77.2%, 51.5%)" stroke-width="1.5"></path><path d="M228.47 1118.53L111.86 1278.61" stroke="hsl(228.5, 77.2%, 51.5%)" stroke-width="1.5"></path><path d="M243.3 1257.49L243.3 1257.49" stroke="hsl(228.5, 77.2%, 51.5%)" stroke-width="1.5"></path><path d="M243.3 1257.49L359.01 1261.58" stroke="hsl(228.5, 77.2%, 51.5%)" stroke-width="1.5"></path><path d="M243.3 1257.49L189.4 1409.43" stroke="hsl(228.5, 77.2%, 51.5%)" stroke-width="1.5"></path><path d="M243.3 1257.49L380.59 1090.68" stroke="hsl(228.5, 77.2%, 51.5%)" stroke-width="1.5"></path><path d="M189.4 1409.43L189.4 1409.43" stroke="hsl(228.5, 77.2%, 51.5%)" stroke-width="1.5"></path><path d="M189.4 1409.43L203.5 1561.71" stroke="hsl(228.5, 77.2%, 51.5%)" stroke-width="1.5"></path><path d="M189.4 1409.43L52.13 1539.6" stroke="hsl(228.5, 77.2%, 51.5%)" stroke-width="1.5"></path><path d="M203.5 1561.71L203.5 1561.71" stroke="hsl(228.5, 77.2%, 51.5%)" stroke-width="1.5"></path><path d="M203.5 1561.71L52.13 1539.6" stroke="hsl(228.5, 77.2%, 51.5%)" stroke-width="1.5"></path><path d="M203.5 1561.71L372.19 1565.35" stroke="hsl(228.5, 77.2%, 51.5%)" stroke-width="1.5"></path><path d="M203.5 1561.71L93.36 1421.18" stroke="hsl(228.5, 77.2%, 51.5%)" stroke-width="1.5"></path><path d="M203.5 1561.71L389.23 1424.5" stroke="hsl(228.5, 77.2%, 51.5%)" stroke-width="1.5"></path><path d="M203.5 1561.71L-70.86 1603.82" stroke="hsl(228.5, 77.2%, 51.5%)" stroke-width="1.5"></path><path d="M382.42 495.74L382.42 495.74" stroke="hsl(228.5, 77.2%, 51.5%)" stroke-width="1.5"></path><path d="M382.42 495.74L506.73 550.14" stroke="hsl(228.5, 77.2%, 51.5%)" stroke-width="1.5"></path><path d="M382.42 495.74L492.81 345.09" stroke="hsl(228.5, 77.2%, 51.5%)" stroke-width="1.5"></path><path d="M382.42 495.74L375.69 712.47" stroke="hsl(228.5, 77.2%, 51.5%)" stroke-width="1.5"></path><path d="M382.42 495.74L551.93 650.99" stroke="hsl(228.5, 77.2%, 51.5%)" stroke-width="1.5"></path><path d="M375.69 712.47L375.69 712.47" stroke="hsl(228.5, 77.2%, 51.5%)" stroke-width="1.5"></path><path d="M375.69 712.47L367.4 792.14" stroke="hsl(228.5, 77.2%, 51.5%)" stroke-width="1.5"></path><path d="M375.69 712.47L551.93 650.99" stroke="hsl(228.5, 77.2%, 51.5%)" stroke-width="1.5"></path><path d="M375.69 712.47L506.73 550.14" stroke="hsl(228.5, 77.2%, 51.5%)" stroke-width="1.5"></path><path d="M367.4 792.14L367.4 792.14" stroke="hsl(228.5, 77.2%, 51.5%)" stroke-width="1.5"></path><path d="M367.4 792.14L340.23 944.76" stroke="hsl(228.5, 77.2%, 51.5%)" stroke-width="1.5"></path><path d="M367.4 792.14L510.51 968.63" stroke="hsl(228.5, 77.2%, 51.5%)" stroke-width="1.5"></path><path d="M367.4 792.14L551.93 650.99" stroke="hsl(228.5, 77.2%, 51.5%)" stroke-width="1.5"></path><path d="M367.4 792.14L211.27 990.71" stroke="hsl(228.5, 77.2%, 51.5%)" stroke-width="1.5"></path><path d="M340.23 944.76L340.23 944.76" stroke="hsl(228.5, 77.2%, 51.5%)" stroke-width="1.5"></path><path d="M340.23 944.76L510.51 968.63" stroke="hsl(228.5, 77.2%, 51.5%)" stroke-width="1.5"></path><path d="M359.01 1261.58L359.01 1261.58" stroke="hsl(228.5, 77.2%, 51.5%)" stroke-width="1.5"></path><path d="M359.01 1261.58L389.23 1424.5" stroke="hsl(228.5, 77.2%, 51.5%)" stroke-width="1.5"></path><path d="M389.23 1424.5L389.23 1424.5" stroke="hsl(228.5, 77.2%, 51.5%)" stroke-width="1.5"></path><path d="M389.23 1424.5L372.19 1565.35" stroke="hsl(228.5, 77.2%, 51.5%)" stroke-width="1.5"></path><path d="M389.23 1424.5L549.35 1402.35" stroke="hsl(228.5, 77.2%, 51.5%)" stroke-width="1.5"></path><path d="M372.19 1565.35L372.19 1565.35" stroke="hsl(228.5, 77.2%, 51.5%)" stroke-width="1.5"></path><path d="M372.19 1565.35L520.11 1548.27" stroke="hsl(228.5, 77.2%, 51.5%)" stroke-width="1.5"></path><path d="M372.19 1565.35L189.4 1409.43" stroke="hsl(228.5, 77.2%, 51.5%)" stroke-width="1.5"></path><path d="M372.19 1565.35L549.35 1402.35" stroke="hsl(228.5, 77.2%, 51.5%)" stroke-width="1.5"></path><path d="M372.19 1565.35L647.27 1562.76" stroke="hsl(228.5, 77.2%, 51.5%)" stroke-width="1.5"></path><path d="M506.93 256.68L506.93 256.68" stroke="hsl(228.5, 77.2%, 51.5%)" stroke-width="1.5"></path><path d="M506.93 256.68L492.81 345.09" stroke="hsl(228.5, 77.2%, 51.5%)" stroke-width="1.5"></path><path d="M506.93 256.68L702.39 100.67" stroke="hsl(228.5, 77.2%, 51.5%)" stroke-width="1.5"></path><path d="M506.93 256.68L382.42 495.74" stroke="hsl(228.5, 77.2%, 51.5%)" stroke-width="1.5"></path><path d="M506.93 256.68L506.73 550.14" stroke="hsl(228.5, 77.2%, 51.5%)" stroke-width="1.5"></path><path d="M492.81 345.09L492.81 345.09" stroke="hsl(228.5, 77.2%, 51.5%)" stroke-width="1.5"></path><path d="M492.81 345.09L506.73 550.14" stroke="hsl(228.5, 77.2%, 51.5%)" stroke-width="1.5"></path><path d="M492.81 345.09L647.42 536.65" stroke="hsl(228.5, 77.2%, 51.5%)" stroke-width="1.5"></path><path d="M506.73 550.14L506.73 550.14" stroke="hsl(228.5, 77.2%, 51.5%)" stroke-width="1.5"></path><path d="M506.73 550.14L551.93 650.99" stroke="hsl(228.5, 77.2%, 51.5%)" stroke-width="1.5"></path><path d="M506.73 550.14L647.42 536.65" stroke="hsl(228.5, 77.2%, 51.5%)" stroke-width="1.5"></path><path d="M551.93 650.99L551.93 650.99" stroke="hsl(228.5, 77.2%, 51.5%)" stroke-width="1.5"></path><path d="M551.93 650.99L647.42 536.65" stroke="hsl(228.5, 77.2%, 51.5%)" stroke-width="1.5"></path><path d="M510.51 968.63L510.51 968.63" stroke="hsl(228.5, 77.2%, 51.5%)" stroke-width="1.5"></path><path d="M510.51 968.63L551.32 1125.48" stroke="hsl(228.5, 77.2%, 51.5%)" stroke-width="1.5"></path><path d="M510.51 968.63L380.59 1090.68" stroke="hsl(228.5, 77.2%, 51.5%)" stroke-width="1.5"></path><path d="M551.32 1125.48L551.32 1125.48" stroke="hsl(228.5, 77.2%, 51.5%)" stroke-width="1.5"></path><path d="M551.32 1125.48L711.88 1139.57" stroke="hsl(228.5, 77.2%, 51.5%)" stroke-width="1.5"></path><path d="M549.35 1402.35L549.35 1402.35" stroke="hsl(228.5, 77.2%, 51.5%)" stroke-width="1.5"></path><path d="M549.35 1402.35L668.94 1420.63" stroke="hsl(228.5, 77.2%, 51.5%)" stroke-width="1.5"></path><path d="M549.35 1402.35L520.11 1548.27" stroke="hsl(228.5, 77.2%, 51.5%)" stroke-width="1.5"></path><path d="M549.35 1402.35L552.5 1249.98" stroke="hsl(228.5, 77.2%, 51.5%)" stroke-width="1.5"></path><path d="M549.35 1402.35L647.27 1562.76" stroke="hsl(228.5, 77.2%, 51.5%)" stroke-width="1.5"></path><path d="M520.11 1548.27L520.11 1548.27" stroke="hsl(228.5, 77.2%, 51.5%)" stroke-width="1.5"></path><path d="M520.11 1548.27L647.27 1562.76" stroke="hsl(228.5, 77.2%, 51.5%)" stroke-width="1.5"></path><path d="M702.39 100.67L702.39 100.67" stroke="hsl(228.5, 77.2%, 51.5%)" stroke-width="1.5"></path><path d="M647.42 536.65L647.42 536.65" stroke="hsl(228.5, 77.2%, 51.5%)" stroke-width="1.5"></path><path d="M696.1 944.6L696.1 944.6" stroke="hsl(228.5, 77.2%, 51.5%)" stroke-width="1.5"></path><path d="M696.1 944.6L510.51 968.63" stroke="hsl(228.5, 77.2%, 51.5%)" stroke-width="1.5"></path><path d="M696.1 944.6L711.88 1139.57" stroke="hsl(228.5, 77.2%, 51.5%)" stroke-width="1.5"></path><path d="M711.88 1139.57L711.88 1139.57" stroke="hsl(228.5, 77.2%, 51.5%)" stroke-width="1.5"></path><path d="M711.88 1139.57L703.45 1270.41" stroke="hsl(228.5, 77.2%, 51.5%)" stroke-width="1.5"></path><path d="M711.88 1139.57L552.5 1249.98" stroke="hsl(228.5, 77.2%, 51.5%)" stroke-width="1.5"></path><path d="M703.45 1270.41L703.45 1270.41" stroke="hsl(228.5, 77.2%, 51.5%)" stroke-width="1.5"></path><path d="M703.45 1270.41L668.94 1420.63" stroke="hsl(228.5, 77.2%, 51.5%)" stroke-width="1.5"></path><path d="M703.45 1270.41L549.35 1402.35" stroke="hsl(228.5, 77.2%, 51.5%)" stroke-width="1.5"></path><path d="M703.45 1270.41L551.32 1125.48" stroke="hsl(228.5, 77.2%, 51.5%)" stroke-width="1.5"></path><path d="M668.94 1420.63L668.94 1420.63" stroke="hsl(228.5, 77.2%, 51.5%)" stroke-width="1.5"></path><path d="M668.94 1420.63L647.27 1562.76" stroke="hsl(228.5, 77.2%, 51.5%)" stroke-width="1.5"></path><path d="M668.94 1420.63L520.11 1548.27" stroke="hsl(228.5, 77.2%, 51.5%)" stroke-width="1.5"></path><path d="M668.94 1420.63L552.5 1249.98" stroke="hsl(228.5, 77.2%, 51.5%)" stroke-width="1.5"></path><path d="M647.27 1562.76L647.27 1562.76" stroke="hsl(228.5, 77.2%, 51.5%)" stroke-width="1.5"></path><circle r="25" cx="-104.66" cy="1458.08" fill="url(#SvgjsRadialGradient1175)"></circle><circle r="25" cx="-70.86" cy="1603.82" fill="url(#SvgjsRadialGradient1175)"></circle><circle r="25" cx="62.5" cy="1116.28" fill="url(#SvgjsRadialGradient1175)"></circle><circle r="25" cx="93.36" cy="1421.18" fill="url(#SvgjsRadialGradient1175)"></circle><circle r="25" cx="380.59" cy="1090.68" fill="url(#SvgjsRadialGradient1175)"></circle><circle r="25" cx="502.87" cy="-63.36" fill="url(#SvgjsRadialGradient1175)"></circle><circle r="25" cx="498.7" cy="60.14" fill="url(#SvgjsRadialGradient1175)"></circle><circle r="25" cx="552.5" cy="1249.98" fill="url(#SvgjsRadialGradient1175)"></circle><circle r="25" cx="691.88" cy="-88.51" fill="url(#SvgjsRadialGradient1175)"></circle><circle r="25" cx="650.47" cy="406.67" fill="url(#SvgjsRadialGradient1175)"></circle><circle r="25" cx="704.76" cy="711.99" fill="url(#SvgjsRadialGradient1175)"></circle><circle r="5" cx="-66.36" cy="1253.16" fill="#8b9ad9"></circle><circle r="5" cx="111.86" cy="1278.61" fill="#8b9ad9"></circle><circle r="5" cx="52.13" cy="1539.6" fill="#8b9ad9"></circle><circle r="5" cx="211.27" cy="990.71" fill="#8b9ad9"></circle><circle r="5" cx="228.47" cy="1118.53" fill="#8b9ad9"></circle><circle r="5" cx="243.3" cy="1257.49" fill="#8b9ad9"></circle><circle r="5" cx="189.4" cy="1409.43" fill="#8b9ad9"></circle><circle r="5" cx="203.5" cy="1561.71" fill="#8b9ad9"></circle><circle r="5" cx="382.42" cy="495.74" fill="#8b9ad9"></circle><circle r="5" cx="375.69" cy="712.47" fill="#8b9ad9"></circle><circle r="5" cx="367.4" cy="792.14" fill="#8b9ad9"></circle><circle r="5" cx="340.23" cy="944.76" fill="#8b9ad9"></circle><circle r="5" cx="359.01" cy="1261.58" fill="#8b9ad9"></circle><circle r="5" cx="389.23" cy="1424.5" fill="#8b9ad9"></circle><circle r="5" cx="372.19" cy="1565.35" fill="#8b9ad9"></circle><circle r="5" cx="506.93" cy="256.68" fill="#8b9ad9"></circle><circle r="5" cx="492.81" cy="345.09" fill="#8b9ad9"></circle><circle r="5" cx="506.73" cy="550.14" fill="#8b9ad9"></circle><circle r="5" cx="551.93" cy="650.99" fill="#8b9ad9"></circle><circle r="5" cx="510.51" cy="968.63" fill="#8b9ad9"></circle><circle r="5" cx="551.32" cy="1125.48" fill="#8b9ad9"></circle><circle r="5" cx="549.35" cy="1402.35" fill="#8b9ad9"></circle><circle r="5" cx="520.11" cy="1548.27" fill="#8b9ad9"></circle><circle r="5" cx="702.39" cy="100.67" fill="#8b9ad9"></circle><circle r="5" cx="647.42" cy="536.65" fill="#8b9ad9"></circle><circle r="5" cx="696.1" cy="944.6" fill="#8b9ad9"></circle><circle r="5" cx="711.88" cy="1139.57" fill="#8b9ad9"></circle><circle r="5" cx="703.45" cy="1270.41" fill="#8b9ad9"></circle><circle r="5" cx="668.94" cy="1420.63" fill="#8b9ad9"></circle><circle r="5" cx="647.27" cy="1562.76" fill="#8b9ad9"></circle></g><defs><mask id="SvgjsMask1174"><rect width="500" height="1400" fill="#ffffff"></rect></mask><radialGradient id="SvgjsRadialGradient1175"><stop stop-color="#ffffff" offset="0.1"></stop><stop stop-color="#1735b3" offset="0.2"></stop><stop stop-color="rgba(23, 53, 179, 0)" offset="1"></stop></radialGradient></defs></svg>